<svg width="16" height="12" viewBox="0 0 16 12" fill="none" xmlns="http://www.w3.org/2000/svg">
<rect width="16" height="12" fill="#F5F5F5"/>
<g clip-path="url(#clip0_1_493)">
<rect width="1600" height="2928" transform="translate(-1052 -34)" fill="white"/>
<rect x="-1052" y="-34" width="1600" height="80" fill="white"/>
<path d="M14.5 0H1.50001C0.672854 0 0 0.672853 0 1.50001V10.5C0 11.3271 0.672854 12 1.50001 12H14.5C15.3271 12 16 11.3271 16 10.5V1.50001C16 0.672853 15.3271 0 14.5 0ZM14.5 0.999994C14.5679 0.999994 14.6325 1.01409 14.6916 1.0387L8 6.83838L1.30833 1.0387C1.36742 1.01412 1.43204 0.999994 1.49998 0.999994H14.5ZM14.5 11H1.50001C1.22414 11 0.999996 10.7759 0.999996 10.5V2.09521L7.67236 7.87792C7.76661 7.95944 7.8833 7.99999 8 7.99999C8.1167 7.99999 8.23339 7.95948 8.32764 7.87792L15 2.09521V10.5C15 10.7759 14.7759 11 14.5 11Z" fill="#757575"/>
<path d="M15.0191 1.41654L15.4073 1.08005C15.4074 1.08016 15.4075 1.08028 15.4075 1.08039L14.6725 1.71736L8.00046 7.49982L8.0001 7.49996L8.32747 7.21621L15.0191 1.41654ZM7.67253 7.21622L7.99989 7.49994L7.99946 7.49976L1.32746 1.71736L0.592494 1.08039C0.592543 1.08029 0.592593 1.08018 0.592643 1.08007L0.980862 1.41654L7.67253 7.21622ZM1.11627 0.577065L1.09289 0.586793C1.21086 0.533936 1.34083 0.503299 1.47744 0.500252C1.34785 0.5032 1.22593 0.531438 1.11627 0.577065ZM14.908 0.58717L14.8839 0.577157C14.7749 0.531733 14.654 0.503655 14.5257 0.500328C14.6615 0.503784 14.7907 0.534493 14.908 0.58717ZM1.50001 11.5C1.46662 11.5 1.43361 11.4984 1.40105 11.4951C1.4336 11.4983 1.46662 11.5 1.50001 11.5H14.5C15.052 11.5 15.4999 11.052 15.5 10.5001C15.5 11.051 15.051 11.5 14.5 11.5H1.50001ZM14.5 1.49999L14.4993 1.50025L14.4994 1.49999H14.5ZM1.49998 1.49999H1.50026L1.5004 1.50034L1.49998 1.49999Z" fill="white" stroke="#757575"/>
</g>
<defs>
<clipPath id="clip0_1_493">
<rect width="1600" height="2928" fill="white" transform="translate(-1052 -34)"/>
</clipPath>
</defs>
</svg>
